<svg xmlns="http://www.w3.org/2000/svg" viewBox="0 0 58 58"><circle cx="29" cy="29" r="29" fill="#565348"/><path d="M46 32c0-13-5-18-5-18s3-1 2-8a45.37 45.37 0 01-8 3s-1-1-6-1-6 1-6 1a45.37 45.37 0 01-8-3c-1 7 2 8 2 8s-5 5-5 18 12 14 12 14l-3 4h2l2-1v3h2v-3l2 1 2-1v3h2v-3l2 1h2l-3-4s12-1 12-14zM29 15l4 5-4 2.22L25 20zm2.84 16l-1.49 2L29 35l-1.35-2-1.49-2h5.68zM21 15a2.78 2.78 0 013 2.5 2.78 2.78 0 01-3 2.5 2.78 2.78 0 01-3-2.5 2.78 2.78 0 013-2.5zm-1.51 18L18 31h6l-1.49 2L21 35zM25 40l-1.48-2L22 36h6l-1.49 2zm4 8l-3-2h6zm5.51-10L33 40l-1.49-2-1.49-2H36zm4-5L37 35l-1.49-2-1.49-2h6zM37 20a2.78 2.78 0 01-3-2.5 2.78 2.78 0 013-2.5 2.78 2.78 0 013 2.5 2.78 2.78 0 01-3 2.5z" fill="#efecf1"/></svg>