<svg id="background" xmlns="http://www.w3.org/2000/svg" viewBox="0 0 921 768">
  <defs>
    <style>
      .cls-1 {
        fill: #76c8b5;
      }

      .cls-2 {
        fill: #ddd8a1;
      }

      .cls-3 {
        fill: #727b89;
      }

      .cls-4 {
        fill: #407746;
      }

      .cls-5 {
        fill: #499d47;
      }

      .cls-6 {
        fill: #5dbb4d;
      }

      .cls-7 {
        fill: #a99b7c;
      }
    </style>
  </defs>
  <g id="sea">
    <rect class="cls-1" width="921" height="768"/>
  </g>
  <g id="base">
    <path class="cls-2" d="M54.7,115.85c-.94-5.42-2.38-13.9-3.2-18.85S48.65,86,47,83.5s-.27-8.07,3.07-12.44l.86-1.12c3.34-4.37,10.53-7.36,16-6.65l3.16.42c5.46.71,13.56-1.36,18-4.59l5.82-4.24c4.45-3.23,9-8.13,10.09-10.88s4.7-5,8-5,9.45,2.89,13.66,6.43l9.68,8.14c4.21,3.54,8.45,10.86,9.42,16.27l1.48,8.32a8.42,8.42,0,0,0,11.25,6.68l14-4.68a35.86,35.86,0,0,1,19-.11l6,1.9a33.27,33.27,0,0,0,18.86-.51l2.32-.88c5.13-2,12-3.11,15.34-2.56s8.47-1.25,11.5-4,8.65-4.33,12.5-3.5,8.57,4.87,10.5,9,7.32,5.12,12,2.2l7-4.4c4.66-2.92,11.85-4.63,16-3.8s9.3,4.2,11.5,7.5,7.84,3.65,12.53.79l.94-.58a74.47,74.47,0,0,0,15-12.84l15.06-17.74c3.56-4.2,10.52-7.18,15.47-6.63s9.9,5.41,11,10.8l4,19.4c1.11,5.39,5.16,10.25,9,10.8s8.67-3.18,10.71-8.28l2.58-6.44a62.43,62.43,0,0,1,10.59-16.54l4.24-4.48a43.38,43.38,0,0,1,16.5-10l8.76-2.5c5.29-1.51,13.67-.79,18.63,1.6l11,5.3C485,46,489.67,50,490.5,52.5s4.65,4,8.5,3.5,9.84,2.49,13.31,6.76l13.38,16.48c3.47,4.27,8.11,6.63,10.31,5.26a13.1,13.1,0,0,1,8.5-1.5c2.47.55,5.17-.13,6-1.5s4.2-2.28,7.5-2,9.15-1.75,13-4.5,9.92-3.43,13.5-1.5S595.5,77,601,77s10.67.9,11.5,2,4.2.87,7.5-.5,10.4-1.54,15.77-.36l12.46,2.72c5.37,1.18,14.18,3,19.58,4.1l.38.08a12.32,12.32,0,0,0,13.4-7.37l2.82-7.34C686.38,65.2,692.5,61,698,61h20a45.43,45.43,0,0,1,18.72,4.9l30.56,17.2a12,12,0,0,0,14.86-3l1.72-2.22a39.8,39.8,0,0,1,15.59-11.16l7.1-2.46c5.2-1.8,9.9.78,10.45,5.73h11c5.5,0,10-2,10-4.5s4.47-5,9.94-5.57l8.12-.86C861.53,58.48,866.9,60.7,868,64s2.67,8.25,3.5,11a90.12,90.12,0,0,1,2.21,15L876.29,126c.39,5.48,4.53,10,9.21,10s8.5,4.5,8.5,10v9c0,5.5-4.19,11.63-9.32,13.62,0,0-26.68,10.38-25.68,12.38s2.09,14,2.09,14a49.37,49.37,0,0,0,6.25,18.41l1.32,2.1A44,44,0,0,1,874.38,234l1.24,33c.21,5.49-1.42,11.79-3.62,14s-3.45,8.47-2.78,13.93l4.56,37.14c.67,5.46,1.34,14.43,1.49,19.93l.46,17c.15,5.5,2.74,13.6,5.77,18s4.31,12.34,2.85,17.64l-13.7,49.72a45.79,45.79,0,0,0-.28,19.36l5.26,21.56a37.17,37.17,0,0,0,9.9,16.31l.94.82c4.14,3.63,6.65,11,5.57,16.4l-.08.38a70.73,70.73,0,0,1-7.05,18.42l-2.82,4.78c-2.8,4.74-3,12.6-.45,17.47l1.72,3.28c2.55,4.87,2.1,12.57-1,17.11l-1.7,2.5A39,39,0,0,0,874.86,611l-.72,50c-.08,5.5-3.93,12.42-8.57,15.38l-41.14,26.24a78.57,78.57,0,0,0-14.87,13l-3.12,3.7C802.9,723.56,795.5,727,790,727H776a47,47,0,0,0-18.8,4.74l-8.4,4.52C744,738.87,737.52,741,734.5,741s-9.71,1.58-14.86,3.51l-5.28,2c-5.15,1.93-13.52,1.79-18.6-.32l-22.52-9.34A132.64,132.64,0,0,0,655,731c-5-1.1-12.08-5.28-15.85-9.29l-17.3-18.42a34.09,34.09,0,0,0-16.73-8.83l-25.24-3.92c-5.43-.85-9.38,2.93-8.78,8.4l1.8,16.12a8.42,8.42,0,0,1-8.89,9.6l-68-2.32A11.31,11.31,0,0,1,485.35,712l-1.7-26c-.36-5.49-4.75-8.13-9.76-5.86l-12.78,5.76a59.42,59.42,0,0,0-15.91,11.45l-24.4,26.34c-3.74,4-11.29,7-16.77,6.56L372,727.77a138,138,0,0,0-19.92.21L301,733c-5.47.54-13.33-.15-17.45-1.52s-11.45-.35-16.28,2.29l-4.44,2.42c-4.83,2.64-13,3.29-18.21,1.46l-15.14-5.34c-5.19-1.83-13.12-.75-17.62,2.4l-13.62,9.54c-4.5,3.15-12.37,4.06-17.47,2l-31.44-12.58c-5.1-2-13.45-2-18.55,0l-18.46,7.48c-5.1,2.07-12.71.85-16.9-2.7l-10.74-9.08c-4.19-3.55-6.51-10.82-5.14-16.14l4-15.64c1.37-5.32.48-13.7-2-18.62L60.47,636.94C58,632,57.39,623.72,59.09,618.49l18.82-58c1.7-5.23.89-13.44-1.8-18.24L57.89,509.73c-2.69-4.8-3.35-13-1.47-18.13l17.16-47.2c1.88-5.17-.63-8-5.58-6.4s-8.88-1.5-8.74-7l.48-18a12.39,12.39,0,0,1,10.15-11.48l.22,0c5.44-.81,6.92-4.86,3.28-9l-8.78-10a70.27,70.27,0,0,1-10.36-16.78l-9.5-23.46a147.43,147.43,0,0,0-9-17.8l-.58-.94c-2.86-4.69-2.45-12.08.93-16.42l1.72-2.22c3.38-4.34,5.61-12.36,5-17.82l-1.66-14.14a36.27,36.27,0,0,1,3.7-18.66l24.26-43.54c2.68-4.8,3.82-13.11,2.55-18.46L60.32,144.73c-1.27-5.35-3.08-14.16-4-19.58Z"/>
  </g>
  <g id="level-stone">
    <path class="cls-3" d="M49.5,81.5c-1.38-3.57,1.76-8,7-9.74l16.08-5.52a68.9,68.9,0,0,0,17.27-9.49l14.38-11.5A15.77,15.77,0,0,1,120.65,44l13.7,8c4.76,2.76,9.37,9.46,10.24,14.89l1.82,11.26a8.24,8.24,0,0,0,11.08,6.71l11-3.68a33.88,33.88,0,0,1,18.91.2l9.16,3.28c5.18,1.85,13.41,1.27,18.28-1.28l3.28-1.72C223,79.09,229.7,77.45,233,78s8.47-1.25,11.5-4,8.65-4.33,12.5-3.5,7,5.1,7,9.5,4,5.94,8.89,3.41l13.22-6.82c4.89-2.53,12.26-3.92,16.39-3.09a20.09,20.09,0,0,1,11.5,8c2.2,3.57,7.74,4,12.32,1l1.36-.9A70.8,70.8,0,0,0,342,68L358,47c3.31-4.38,10.08-6.62,15-5s9.82,7.42,10.83,12.83l4.34,23.34c1,5.41,5,9.83,8.83,9.83s8.67-4.18,10.71-9.28l2.58-6.44c2-5.1,7.08-10.85,11.21-12.78s10.2-.12,13.5,4,10.39,8.5,15.75,9.73l15.5,3.54c5.36,1.23,12.4-1.41,15.63-5.86l4.24-5.82c3.23-4.45,9-8.54,12.88-9.09s9.33,2.85,12.18,7.55l9.64,15.9a13.26,13.26,0,0,0,14.69,5.45l30-9.8a49.79,49.79,0,0,1,19.39-1.56l25.24,3.92c5.43.85,11.23.86,12.88,0s7.41-.59,12.79.53L645.21,80c5.38,1.12,14.14,3.17,19.47,4.55l3.64,1a11.68,11.68,0,0,0,13.39-6.76l2.58-6.44a13.52,13.52,0,0,1,13.62-7.94l54.18,7.32a32.7,32.7,0,0,1,16.73,8.65l.36.38c3.75,4,10.2,7.31,14.32,7.31s6.38-2.93,5-6.5,1.68-8.17,6.78-10.21l11.44-4.58c5.1-2,9.28-2.14,9.28-.21s3.15,3.5,7,3.5,8.8-1.57,11-3.5,8.43-4.29,13.84-5.26l8.32-1.48A11.75,11.75,0,0,1,869,67.53l.94,2.94c1.67,5.24-.48,12.34-4.78,15.78l-9.38,7.5a69.23,69.23,0,0,1-17.26,9.51l-10.1,3.48c-5.2,1.79-13.37,1.05-18.16-1.66l-5.58-3.16a45.59,45.59,0,0,0-18.71-5L141,93.06c-5.5,0-12.25,3.76-15,8.44s-9.49,8.24-15,7.91l-48-2.82C57.49,106.26,52.77,102,52.5,97A62.42,62.42,0,0,0,49.5,81.5Z"/>
    <path class="cls-3" d="M47.57,267.4c3-4.62,9.93-8.4,15.43-8.4h2c5.5,0,12.92,3.38,16.5,7.5s5.34,11.85,3.92,17.16l-2.84,10.68A78.78,78.78,0,0,0,80.43,314l.14,3a36.92,36.92,0,0,1-5,18.39l-.14.2c-3,4.62-9.93,8.4-15.43,8.4H57c-5.5,0-10-3.83-10-8.5s-4-10.51-8.94-13l-4.12-2.06c-4.92-2.46-5.22-7-.68-10.1l5.48-3.74c4.54-3.09,7.38-10,6.3-15.44L44,285.81c-1.08-5.4.48-13.59,3.47-18.21Z"/>
    <path class="cls-3" d="M62,415c3.3-2.75,10.18-3.33,15.28-1.29l1.44.58c5.1,2,6.4,7.17,2.88,11.39l-7.2,8.64C70.88,438.54,65.3,442,62,442s-6-4.5-6-10v-2C56,424.5,58.7,417.75,62,415Z"/>
    <path class="cls-3" d="M95,578.5c3.85-2.48,9.7-2.92,13-1s4.65,7.1,3,11.5-1.65,9.58,0,11.5a4.88,4.88,0,0,1,0,6.5,4.56,4.56,0,0,1-6,.5c-1.65-1.37-5.42-6.3-8.37-10.94l-3.26-5.12C90.42,586.8,91.15,581,95,578.5Z"/>
    <path class="cls-3" d="M481.5,654c-4.68,0-6.64,4.1-4.36,9.1l1.72,3.8c2.28,5,5.71,8,7.64,6.6s3.5-6.33,3.5-11A8.53,8.53,0,0,0,481.5,654Z"/>
    <path class="cls-3" d="M520,654c-5.5,0-10,2.48-10,5.5s4.33,4.26,9.62,2.75l1.76-.5c5.29-1.51,9.62-1.4,9.62.25s4.32,4.25,9.61,5.78l18.78,5.44c5.29,1.53,9.61-1.72,9.61-7.22v-2a10,10,0,0,0-10-10Z"/>
    <path class="cls-3" d="M486,677c.55-.55,5.49-.64,11-.2L552,681.2c5.48.44,12.22,2.15,15,3.8s4.88,7.5,4.73,13l-.46,17A10.91,10.91,0,0,1,561,725.42l-4,.16c-5.49.23-14.48.13-20-.22l-42-2.72A10.84,10.84,0,0,1,485,712V688C485,682.5,485.45,677.55,486,677Z"/>
    <path class="cls-3" d="M869,508.4c-5.49-.22-12.47,1.85-15.49,4.6s-5.5,6.8-5.5,9a8,8,0,0,1-3,6c-1.65,1.1-2.49,6.47-1.86,11.94l1.72,15.12c.63,5.47-1.78,12.19-5.36,14.94s-6.18,9.49-5.79,15l.58,8.06c.39,5.48,4.64,12.16,9.45,14.83l.52.28c4.81,2.67,12.76,2.85,17.68.39l4.12-2.06c4.92-2.46,8.71-6.27,8.44-8.47s2.42-6.7,6-10,5.38-10.27,4-15.5-3.85-9.27-5.5-9-3-1.52-3-4,3.28-7.58,7.3-11.34l1.4-1.32c4-3.76,6.93-11.32,6.47-16.81l-.34-4.06c-.46-5.49-2.18-11.55-3.83-13.47s-7.5-3.68-13-3.9Z"/>
    <path class="cls-3" d="M849.5,327.5c.83-1.93,4.2-2.82,7.5-2s6.67,3.3,7.5,5.5-.08,5.58-2,7.5-6,1-9-2S848.67,329.42,849.5,327.5Z"/>
    <path class="cls-3" d="M825.5,285c1.38-1.65,5.2-1.2,8.5,1s4.42,5.57,2.5,7.5a16.2,16.2,0,0,1-8.5,4,4.46,4.46,0,0,1-5-4.5A14.58,14.58,0,0,1,825.5,285Z"/>
  </g>
  <g id="level-1">
    <path class="cls-4" d="M128,93H794c5.5,0,11.86,4.1,14.14,9.1l11.72,25.8c2.28,5,8.64,9.1,14.14,9.1h50a10,10,0,0,1,10,10v8c0,5.5-3.88,12.28-8.62,15.07l-16.76,9.86A43.47,43.47,0,0,1,850,185h-3c-5.5,0-12.83,3.5-16.28,7.78l-8.44,10.44c-3.45,4.28-6.12,12.28-5.91,17.77l2.26,62c.21,5.49.26,14.49.12,20l-8.5,335a14,14,0,0,1-9.94,12.47l-31.62,8.06a57,57,0,0,0-17.57,8.63l-7.24,5.68c-4.34,3.39-12.08,4.53-17.2,2.54l-48.36-18.76A63,63,0,0,0,659,653.05L276,655a88.43,88.43,0,0,0-19.62,2.78l-40.76,11.54a33.46,33.46,0,0,1-18.85-1.12l-29.54-12.3c-5.08-2.12-13.4-5.54-18.5-7.61l-18.46-7.48c-5.1-2.07-9.27-8.26-9.27-13.76V376a47.56,47.56,0,0,0-4.7-18.83l-15.6-29.34C98.11,323,97.36,314.71,99,309.46l18-56.92A80.36,80.36,0,0,0,120.07,233l.86-130C121,97.5,124.15,93,128,93Z"/>
  </g>
  <g id="level-2">
    <path class="cls-5" d="M121,126c0-5.5,3.31-13,7.36-16.77l10.28-9.46C142.69,96.05,150.5,93,156,93H729a10,10,0,0,1,10,10v80a10,10,0,0,1-10,10H672c-5.5,0-10.45,4.27-11,9.5s-5.5,9.5-11,9.5H577c-5.5,0-12.48,1.57-15.5,3.5s-10,3.5-15.5,3.5h0c-5.5,0-11.8-1.8-14-4s-8.49-3.69-14-3.31l-9,.62a32.84,32.84,0,0,0-17.29,7.52l-46.38,43.34c-4,3.76-11.81,6.83-17.31,6.83H364c-5.5,0-12.9-3.44-16.44-7.65l-3.12-3.7c-3.54-4.21-10.94-7.59-16.44-7.52l-138,1.74A10.19,10.19,0,0,0,180,263v35a10,10,0,0,1-10,10H131a10,10,0,0,1-10-10Z"/>
  </g>
  <g id="level-3">
    <path class="cls-6" d="M469.26,111A11,11,0,0,1,480,101h94a10.62,10.62,0,0,1,10.48,10l2,42c.26,5.5-2.51,13.35-6.16,17.46l-2.72,3.06A82.12,82.12,0,0,0,567.5,188c-1.93,3.85-8,6.57-13.45,6.05L532,192a48.84,48.84,0,0,1-18.36-6.36l-39.18-25.18c-4.62-3-8.08-9.9-7.67-15.38Z"/>
  </g>
  <g id="river">
    <path class="cls-1" d="M334,746.07A9,9,0,0,1,324,737V423a10,10,0,0,1,10-10h62a10,10,0,0,0,10-10V315c0-5.5-3.06-13.3-6.8-17.33l-12.4-13.34c-3.74-4-6.59-11.83-6.34-17.32l2.08-45c.25-5.49,2.48-11.79,5-14s9-4,14.5-4h8c5.5,0,12.19,3.93,14.86,8.74l.28.52A48.65,48.65,0,0,1,430.27,232l4.46,168A10.37,10.37,0,0,0,445,410H552a10.42,10.42,0,0,0,10.32-10l3.36-104A10.42,10.42,0,0,1,576,286H764c5.5,0,11.8,1.8,14,4s8.49,3.7,14,3.33c0,0,80-5.33,80-3.33s4.16,24.17,4.16,24.17a7.88,7.88,0,0,1-8.16,9.69l-264-3.72a9.78,9.78,0,0,0-9.93,9.86l.86,116a9.8,9.8,0,0,1-9.93,9.88S354,453,354,456s1.93,278,1.93,278A11.13,11.13,0,0,1,346,744.93Z"/>
  </g>
  <g id="center">
    <rect class="cls-7" x="492" y="467" width="96" height="81" rx="9.83"/>
  </g>
</svg>
