<svg xmlns="http://www.w3.org/2000/svg" viewBox="0 0 423.39 116"><g id="ui"><polygon points="51.52 97.05 46.6 97.02 46.46 97.37 51.52 97.05" fill="none"/><path d="M417.2,35c-4.38-.4-16.05-1.11-28.52-1.83L385.2,94.33a4.65,4.65,0,0,1-1.56,3.46h0a4.64,4.64,0,0,1-3.1,1.2h-1.65L323.2,113l88,3s10-2,0-18l-13-23,23-30S428.2,36,417.2,35Z" fill="#b9a54d"/><polygon points="383.66 97.79 383.64 97.79 383.63 97.8 383.66 97.79" fill="#a99350"/><polygon points="323.19 98.66 323.19 113 378.88 98.99 323.19 98.66" fill="#a99350"/><polygon points="46.46 97.37 39.73 97.79 100.19 113 100.19 98 100.19 97.34 51.52 97.05 46.46 97.37" fill="#a99350"/><path d="M46.46,97.37,46.6,97l-3.74,0a4.66,4.66,0,0,1-4.66-4.67L33.48,33.24c-12,.69-23,1.37-27.28,1.76-11,1-4,10-4,10l23,30-13,23c-10,16,0,18,0,18l88-3L39.73,97.79Z" fill="#b9a54d"/><path d="M380.53,99a4.64,4.64,0,0,0,3.1-1.2h0a4.65,4.65,0,0,0,1.56-3.46l3.48-61.16,1.52-26.5A4.67,4.67,0,0,0,385.53,2L35.86,0A4.66,4.66,0,0,0,31.2,4.67l2.28,28.57L38.2,92.33A4.66,4.66,0,0,0,42.86,97l3.74,0,4.92,0,48.68.29,223,1.32,55.68.33Z" fill="#edda4e"/></g></svg>