<svg xmlns="http://www.w3.org/2000/svg" viewBox="0 0 423.39 116"><path fill="none" d="M51.52 97.05l-4.92-.03-.14.35 5.06-.32z"/><path d="M417.2 35c-4.38-.4-16.05-1.11-28.52-1.83l-3.48 61.16a4.65 4.65 0 01-1.56 3.46 4.64 4.64 0 01-3.1 1.2h-1.65L323.2 113l88 3s10-2 0-18l-13-23 23-30s7-9-4-10z" fill="#b9a54d"/><path fill="#a99350" d="M383.66 97.79h-.02l-.01.01.03-.01zM323.19 98.66V113l55.69-14.01-55.69-.33zM46.46 97.37l-6.73.42L100.19 113V97.34l-48.67-.29-5.06.32z"/><path d="M46.46 97.37l.14-.37h-3.74a4.66 4.66 0 01-4.66-4.67l-4.72-59.09c-12 .69-23 1.37-27.28 1.76-11 1-4 10-4 10l23 30-13 23c-10 16 0 18 0 18l88-3-60.47-15.21z" fill="#b9a54d"/><path d="M380.53 99a4.64 4.64 0 003.1-1.2 4.65 4.65 0 001.56-3.46l3.48-61.16 1.52-26.5A4.67 4.67 0 00385.53 2L35.86 0a4.66 4.66 0 00-4.66 4.67l2.28 28.57 4.72 59.09A4.66 4.66 0 0042.86 97h8.66l48.68.29 223 1.32 55.68.33z" fill="#edda4e"/></svg>