<svg xmlns="http://www.w3.org/2000/svg" viewBox="0 0 58 58"><g id="locations"><circle cx="29" cy="29" r="29" fill="#565348"/><polygon points="23 11 29 6 35 12 33 12 29 9 25 12 23 12 23 11" fill="#fff"/><polygon points="28 12 30 12 32 14 35 14 35 18 23 18 23 14 26 14 28 12" fill="#fff"/><polygon points="37 18 47 18 53 24 53 25 39 25 31 21 31 20 37 20 37 18" fill="#fff"/><polygon points="28 22 30 22 38 26 38 27 20 27 20 26 28 22" fill="#fff"/><polygon points="27 20 27 21 19 25 5 25 5 24 11 18 21 18 21 20 27 20" fill="#fff"/><path d="M50,41V39h1V31h1V27H42v2H16V27H6v4H7v8H8v2H5v3H53V41ZM19,40H11V33l2-2h4l2,2Zm9,2H22V31h6Zm8,0H30V31h6Zm11-2H39V33l2-2h4l2,2Z" fill="#fff"/></g></svg>