<svg xmlns="http://www.w3.org/2000/svg" viewBox="0 0 58 58"><g id="locations"><circle cx="29" cy="29" r="29" fill="#565348"/><path d="M46,32c0-13-5-18-5-18s3-1,2-8a45.37,45.37,0,0,1-8,3s-1-1-6-1-6,1-6,1a45.37,45.37,0,0,1-8-3c-1,7,2,8,2,8s-5,5-5,18S24,46,24,46l-3,4h2l2-1v3h2V49l2,1,2-1v3h2V49l2,1h2l-3-4S46,45,46,32ZM29,15l4,5-4,2.22L25,20Zm2.84,16-1.49,2L29,35l-1.35-2-1.49-2h5.68ZM21,15a2.78,2.78,0,0,1,3,2.5A2.78,2.78,0,0,1,21,20a2.78,2.78,0,0,1-3-2.5A2.78,2.78,0,0,1,21,15ZM19.49,33,18,31H24l-1.49,2L21,35ZM25,40l-1.48-2L22,36H28l-1.49,2Zm4,8-3-2h6Zm5.51-10L33,40l-1.49-2-1.49-2H36Zm4-5L37,35l-1.49-2-1.49-2h6ZM37,20a2.78,2.78,0,0,1-3-2.5A2.78,2.78,0,0,1,37,15a2.78,2.78,0,0,1,3,2.5A2.78,2.78,0,0,1,37,20Z" fill="#efecf1"/></g></svg>